# xmcd
#
# Track frame offsets:
#	200
#	12145
#	28500
#	36465
#	45882
#	55767
#	66662
#	76990
#	91130
#	99247
#	108585
#	119957
#	133247
#	138130
#	142762
#	148817
#	156072
#	163495
#	167735
#	171927
#	178135
#	185082
#	191282
#	196977
#	201112
#	204505
#	209082
#	215490
#
# Disc length: 3128 seconds
#
# Revision: 0
# Processed by: cddbd v1.4PL0 Copyright (c) Steve Scherf et al.
# Submitted via: dBpowerAMP V4.0
#
DISCID=a60c361c
DTITLE=Leadbelly - Leadbelly Memorial Vol. 1 and 2
DYEAR=1995
DGENRE=Blues
TTITLE0=Good Night Irene
TTITLE1=T.B. Blues
TTITLE2=Man Going Around Taking Names
TTITLE3=Rock Island Line
TTITLE4=How Long
TTITLE5=Good Morning Blues
TTITLE6=John Henry
TTITLE7=Pig Meat
TTITLE8=On a Monday
TTITLE9=Ain't You Glad
TTITLE10=Old Riley
TTITLE11=See See Rider
TTITLE12=Meeting at the Building
TTITLE13=Talking, Preaching
TTITLE14=We Shall Walk Through the Valley
TTITLE15=Cow Cow Yicky Yicky Yea
TTITLE16=Out in the Western Plains
TTITLE17=Fiddler's Dream
TTITLE18=Yellow Girl
TTITLE19=Green Corn
TTITLE20=NOted Rider
TTITLE21=Big Fat Woman
TTITLE22=Borrow Love and Go
TTITLE23=Bring Me Little Water, Silvy
TTITLE24=Julie Ann Johnson
TTITLE25=Line 'em
TTITLE26=Whoe Back, Buck
TTITLE27=John Hardy
EXTD=
EXTT0=
EXTT1=
EXTT2=
EXTT3=
EXTT4=
EXTT5=
EXTT6=
EXTT7=
EXTT8=
EXTT9=
EXTT10=
EXTT11=
EXTT12=
EXTT13=
EXTT14=
EXTT15=
EXTT16=
EXTT17=
EXTT18=
EXTT19=
EXTT20=
EXTT21=
EXTT22=
EXTT23=
EXTT24=
EXTT25=
EXTT26=
EXTT27=
PLAYORDER=
